<?xml version="1.0" standalone="no"?>
<!DOCTYPE svg PUBLIC "-//W3C//DTD SVG 20010904//EN"
 "http://www.w3.org/TR/2001/REC-SVG-20010904/DTD/svg10.dtd">
<svg version="1.0" xmlns="http://www.w3.org/2000/svg"
 width="192.000000pt" height="192.000000pt" viewBox="0 0 192.000000 192.000000"
 preserveAspectRatio="xMidYMid meet">

<g transform="translate(0.000000,192.000000) scale(0.100000,-0.100000)"
fill="#000000" stroke="none">
<path d="M0 960 l0 -960 960 0 960 0 0 960 0 960 -960 0 -960 0 0 -960z m1003
758 c25 -31 27 -39 17 -58 -17 -32 -5 -81 36 -141 37 -55 37 -82 1 -39 -12 14
-40 47 -62 74 l-40 48 -159 -194 c-88 -106 -166 -201 -174 -210 -13 -15 -8
-24 39 -82 30 -36 59 -66 64 -65 6 0 60 61 120 134 61 74 113 135 116 135 4 0
26 -25 50 -55 24 -30 47 -54 50 -55 3 0 44 47 90 105 79 98 111 128 94 88 -27
-64 -12 -92 141 -273 11 -13 3 -27 -52 -89 -36 -40 -64 -77 -62 -82 2 -4 43
-56 92 -114 80 -96 87 -107 74 -123 -8 -9 -113 -136 -233 -282 -120 -146 -223
-271 -230 -278 -10 -11 -49 31 -206 219 -107 128 -217 260 -246 294 l-51 61
89 108 c49 60 89 112 89 117 0 4 -40 56 -90 114 l-89 106 60 72 c33 40 141
170 241 290 99 120 185 216 191 214 6 -2 24 -19 40 -39z"/>
<path d="M1101 1210 l-23 -20 41 -54 c23 -29 50 -61 61 -71 20 -18 21 -18 50
16 16 19 29 36 30 39 0 3 -21 29 -46 58 -50 57 -74 64 -113 32z"/>
<path d="M876 1059 c-42 -50 -76 -94 -76 -98 0 -11 151 -191 160 -191 5 0 45
43 90 95 l81 95 -78 94 c-43 52 -83 95 -90 95 -6 1 -45 -40 -87 -90z"/>
<path d="M666 803 l-55 -66 20 -26 c57 -74 325 -390 331 -390 3 -1 80 88 169
197 90 108 167 199 171 200 5 2 8 8 8 14 0 17 -103 139 -114 135 -6 -2 -59
-61 -117 -132 -58 -71 -110 -130 -115 -132 -5 -1 -58 58 -119 132 -60 74 -113
134 -117 134 -3 1 -31 -29 -62 -66z"/>
</g>
</svg>
